#!OML:ASF H:\GeneralSubjects\Female5\Project 1\Capture day 1\Session 1\Female5.ASF
:FULLY-SPECIFIED
:DEGREES
550
root -12.8854 16.5369 0.0523175 201.567 227.928 -188.322
lowerback 13.0112 -2.72142 -14.0348
upperback -10.9028 -5.33874 14.6599
thorax -17.7399 0.978458 29.3186
lowerneck -18.6901 -1.70284 -8.88498
upperneck 39.1674 0.464959 -1.79881
head 17.7035 -1.7831 0.719477
rclavicle 3.26007e-014 -6.36111e-014
rhumerus -357.238 61.7981 -393.057
rradius 57.6242
rwrist -22.4214
rhand -25.9946 -9.15121
rfingers 7.12502
rthumb 0.550963 -39.1302
lclavicle 3.26007e-014 -6.36111e-014
lhumerus -76.2323 16.0389 75.687
lradius 45.2704
lwrist -22.6953
lhand -26.0536 20.0699
lfingers 7.12502
lthumb 0.493967 50.049
rfemur -21.9322 26.3741 22.8281
rtibia 5.64574
rfoot -0.74906 -0.862425
rtoes -33.1312
lfemur -19.214 -16.5327 -26.2709
ltibia 21.984
lfoot -37.1535 -6.57709
ltoes -20.4452
551
root -12.8099 16.6534 0.121673 202.549 231.843 -188.95
lowerback 11.7608 -2.00929 -12.4158
upperback -10.7171 -3.92513 13.0651
thorax -17.4949 1.07681 24.9373
lowerneck -18.9574 -2.10005 -7.99781
upperneck 39.038 -0.91328 -0.686716
head 17.7243 -2.02698 0.803039
rclavicle -1.74931e-014 1.59028e-013
rhumerus -361.28 53.2262 -394.854
rradius 56.7388
rwrist -19.7398
rhand -27.0051 -8.1672
rfingers 7.12502
rthumb -0.425002 -38.1465
lclavicle -1.74931e-014 1.59028e-013
lhumerus -72.8973 10.8717 72.8157
lradius 45.7251
lwrist -20.9562
lhand -24.9957 21.1227
lfingers 7.12502
lthumb 1.51576 51.0971
rfemur -20.7195 25.7967 23.7463
rtibia 3.78459
rfoot -1.01897 -8.95224
rtoes -19.019
lfemur -17.5248 -17.8968 -26.0057
ltibia 19.024
lfoot -36.1545 -6.37625
ltoes -19.096
552
root -12.7436 16.7278 0.177167 202.98 235.742 -188.824
lowerback 10.6598 -1.27241 -11.1577
upperback -10.7322 -2.69617 11.13
thorax -17.3791 1.20156 20.8143
lowerneck -18.9795 -2.42613 -7.12116
upperneck 39.065 -2.21656 0.371486
head 17.7855 -2.26387 0.872728
rclavicle -1.07344e-014 -3.18055e-014
rhumerus -364.463 45.338 -395.601
rradius 55.7298
rwrist -16.7309
rhand -27.0348 -7.32403
rfingers 7.12502
rthumb -0.453671 -37.3033
lclavicle -1.07344e-014 -3.18055e-014
lhumerus -69.4479 6.10763 68.8767
lradius 46.1456
lwrist -19.3772
lhand -25.4067 22.3138
lfingers 7.12502
lthumb 1.11877 52.2906
rfemur -19.46 24.9922 24.1415
rtibia 2.24773
rfoot 0.395031 -12.5607
rtoes -36.0696
lfemur -16.2102 -18.5668 -26.4125
ltibia 16.6002
lfoot -35.4648 -5.91877
ltoes -18.1977
553
root -12.7011 16.7417 0.216959 204.39 239.069 -190.466
lowerback 10.0183 -0.535585 -8.86105
upperback -10.6611 -1.35087 9.35888
thorax -17.3947 1.30093 16.5575
lowerneck -18.7662 -2.75013 -6.46109
upperneck 39.0771 -3.51512 1.53349
head 17.8046 -2.52369 1.02878
rclavicle -5.96354e-015 3.33958e-014
rhumerus -367.019 37.7824 -395.656
rradius 54.4466
rwrist -13.4905
rhand -27.0302 -7.44068
rfingers 7.12502
rthumb -0.449258 -37.4199
lclavicle -5.96354e-015 3.33958e-014
lhumerus -65.4484 2.01095 64.1035
lradius 46.3916
lwrist -17.3903
lhand -26.5652 23.3457
lfingers 7.12502
lthumb -0.000146726 53.3255
rfemur -17.2822 26.2576 25.4636
rtibia -4.40993e-005
rfoot -0.968736 -15.0071
rtoes -33.4037
lfemur -14.6953 -17.764 -26.0677
ltibia 14.3596
lfoot -34.5295 -7.12613
ltoes -16.503
554
root -12.6729 16.7141 0.2625 205.031 242.155 -191.237
lowerback 9.42976 0.161825 -6.85246
upperback -10.5092 -0.229225 7.27082
thorax -17.5181 1.39317 12.6629
lowerneck -18.2754 -3.1311 -6.21729
upperneck 39.0043 -4.80714 2.79622
head 17.7473 -2.83923 1.30787
rclavicle -5.58585e-014 2.70347e-014
rhumerus -369.448 31.3329 -395.203
rradius 53.3674
rwrist -13.0168
rhand -27.9192 -6.96688
rfingers 7.12502
rthumb -1.30788 -36.9426
lclavicle -5.58585e-014 2.70347e-014
lhumerus -60.7374 -1.28347 58.8848
lradius 46.5311
lwrist -14.6929
lhand -27.2816 24.5553
lfingers 7.12502
lthumb -0.692044 54.5339
rfemur -15.1703 28.6867 25.7575
rtibia -2.77382
rfoot -2.8735 -18.6823
rtoes -27.3843
lfemur -13.2878 -16.299 -26.7189
ltibia 12.5522
lfoot -35.6039 -8.82063
ltoes -14.676
555
root -12.656 16.6476 0.304238 205.652 245.011 -192.17
lowerback 9.04851 0.848529 -4.71551
upperback -10.6018 0.866981 5.31141
thorax -17.4572 1.40918 8.68691
lowerneck -17.6171 -3.4132 -5.95367
upperneck 38.9284 -5.91587 3.943
head 17.6536 -3.10849 1.5689
rclavicle -7.89672e-014 -1.74931e-014
rhumerus -371.853 25.1399 -394.469
rradius 52.2109
rwrist -12.5003
rhand -29.3564 -7.29328
rfingers 7.12502
rthumb -2.69588 -37.256
lclavicle -7.89672e-014 -1.74931e-014
lhumerus -55.3017 -3.24058 53.074
lradius 46.303
lwrist -11.6699
lhand -28.3772 24.9368
lfingers 7.12502
lthumb -1.75019 54.9094
rfemur -13.1803 29.8661 26.4757
rtibia -5.33116
rfoot -3.0402 -20.505
rtoes -26.2806
lfemur -11.7775 -15.1861 -27.5114
ltibia 10.9804
lfoot -37.9541 -6.82875
ltoes -18.0637
556
root -12.6424 16.5522 0.336211 206.734 247.652 -193.731
lowerback 8.89439 1.52232 -2.42646
upperback -10.7 1.93514 3.37384
thorax -17.4103 1.4151 4.81456
lowerneck -16.9663 -3.60889 -5.26549
upperneck 38.8101 -6.93446 4.85199
head 17.5174 -3.31994 1.66281
rclavicle -1.22253e-014 -6.95746e-015
rhumerus -374.245 19.1557 -393.551
rradius 51.1401
rwrist -12.0133
rhand -30.2077 -7.42337
rfingers 7.12502
rthumb -3.51799 -37.3741
lclavicle -1.22253e-014 -6.95746e-015
lhumerus -49.4406 -3.43603 46.9317
lradius 45.9942
lwrist -8.81779
lhand -30.3443 26.1438
lfingers 7.12502
lthumb -3.64998 56.0923
rfemur -11.7403 30.8596 27.3229
rtibia -7.01098
rfoot -2.25546 -20.972
rtoes -27.1608
lfemur -10.2814 -14.5214 -28.1124
ltibia 9.6269
lfoot -40.7164 -5.62995
ltoes -18.6205
557
root -12.6245 16.4419 0.360279 207.782 250.241 -195.175
lowerback 8.88574 2.19672 -0.454172
upperback -10.8111 2.93276 1.45207
thorax -17.3696 1.44245 1.24917
lowerneck -16.378 -3.88608 -4.55001
upperneck 38.6201 -8.05542 5.73871
head 17.3768 -3.5793 1.7187
rclavicle -7.89175e-014 -3.35946e-014
rhumerus -376.621 13.2731 -392.388
rradius 50.2409
rwrist -11.4845
rhand -30.3572 -7.6009
rfingers 7.12502
rthumb -3.66238 -37.5492
lclavicle -7.89175e-014 -3.35946e-014
lhumerus -43.6081 -2.31116 41.3718
lradius 46.2961
lwrist -5.60536
lhand -30.5277 29.4266
lfingers 7.12502
lthumb -3.8271 59.372
rfemur -11.0124 31.6214 27.6139
rtibia -7.75752
rfoot -2.34073 -20.7399
rtoes -24.1465
lfemur -9.15182 -13.8665 -28.8396
ltibia 8.78408
lfoot -42.886 -5.34886
ltoes -18.0997
558
root -12.6008 16.3339 0.385961 208.65 252.867 -196.272
lowerback 9.00544 2.84679 1.30961
upperback -10.9591 3.85082 -0.477743
thorax -17.3704 1.45999 -2.15761
lowerneck -15.9222 -3.95395 -3.66697
upperneck 38.4065 -8.84939 6.5626
head 17.2266 -3.69282 1.77907
rclavicle 3.50358e-014 -1.59028e-014
rhumerus -379.256 7.58824 -391.137
rradius 49.7072
rwrist -10.9385
rhand -30.7523 -7.84456
rfingers 7.12502
rthumb -4.0439 -37.7859
lclavicle 3.50358e-014 -1.59028e-014
lhumerus -38.1459 -0.9053 37.0715
lradius 47.298
lwrist -2.19359
lhand -32.9168 30.8977
lfingers 7.12502
lthumb -6.1339 60.7889
rfemur -11.084 32.1933 27.128
rtibia -7.65372
rfoot -0.794626 -20.2549
rtoes -29.4527
lfemur -8.53583 -13.0829 -29.7529
ltibia 8.44494
lfoot -44.2299 -5.71353
ltoes -17.1179
559
root -12.5729 16.2497 0.418896 208.978 255.489 -196.664
lowerback 8.77162 2.71256 0.249141
upperback -10.9235 3.47313 -0.429652
thorax -17.2564 1.42381 -1.40986
lowerneck -16.0131 -3.3013 -3.22863
upperneck 38.3252 -7.80953 6.13914
head 17.0606 -3.269 1.70866
rclavicle 7.26061e-014 1.90833e-014
rhumerus -378.39 4.39142 -388.873
rradius 49.3034
rwrist -10.7717
rhand -31.3925 -8.13052
rfingers 7.12502
rthumb -4.66214 -38.0592
lclavicle 7.26061e-014 1.90833e-014
lhumerus -36.6556 3.34407 34.236
lradius 49.3077
lwrist 1.1211
lhand -33.8669 34.0029
lfingers 7.12502
lthumb -7.05107 63.8654
rfemur -11.9384 32.5496 25.9756
rtibia -6.87003
rfoot -1.21195 -20.1514
rtoes -29.511
lfemur -8.3456 -12.2604 -30.9093
ltibia 8.52614
lfoot -45.4968 -4.8353
ltoes -17.9159
560
root -12.5488 16.2209 0.457923 215.005 257.354 -202.421
lowerback 8.1103 2.55273 0.586702
upperback -11.0179 3.32802 -0.115171
thorax -16.9378 1.34231 -1.17213
lowerneck -16.7511 -2.76428 -2.40065
upperneck 38.6558 -7.01666 5.41474
head 17.2846 -2.90972 1.37898
rclavicle -2.67862e-014 -1.07344e-014
rhumerus -377.958 1.10147 -387.036
rradius 49.3123
rwrist -10.5937
rhand -32.1936 -8.69526
rfingers 7.12502
rthumb -5.43569 -38.6055
lclavicle -2.67862e-014 -1.07344e-014
lhumerus -35.3651 7.74135 31.889
lradius 51.391
lwrist 4.52144
lhand -34.9558 36.6403
lfingers 7.12502
lthumb -8.10214 66.465
rfemur -13.691 32.9269 25.969
rtibia -5.55314
rfoot -0.756878 -18.9634
rtoes -31.7449
lfemur -8.73878 -11.5014 -30.3578
ltibia 8.63619
lfoot -46.9264 -2.09203
ltoes -21.4234
561
root -12.5232 16.2204 0.495499 221.133 259.103 -208.441
lowerback 7.81017 2.47561 0.757058
upperback -11.0887 3.24524 -0.002038
thorax -16.8264 1.28876 -1.10532
lowerneck -16.9454 -2.19211 -1.66333
upperneck 38.6817 -6.24237 5.00798
head 17.2447 -2.54507 1.21044
rclavicle -3.29983e-014 8.34896e-015
rhumerus -378.479 -2.81213 -385.525
rradius 49.8325
rwrist -9.72792
rhand -32.1189 -9.44107
rfingers 7.12502
rthumb -5.3635 -39.3532
lclavicle -3.29983e-014 8.34896e-015
lhumerus -34.7476 10.4518 30.7376
lradius 54.6103
lwrist 8.33391
lhand -36.8354 37.8094
lfingers 7.12502
lthumb -9.91584 67.5559
rfemur -15.1589 33.1237 25.8516
rtibia -4.25844
rfoot -0.405901 -17.053
rtoes -31.8815
lfemur -8.75706 -10.6258 -30.1273
ltibia 8.40185
lfoot -47.9206 -0.536541
ltoes -23.0897
562
root -12.4949 16.2381 0.528406 227.599 260.594 -215.043
lowerback 7.87288 2.43542 0.818027
upperback -11.0988 3.19335 0.00801666
thorax -16.8788 1.25332 -1.11865
lowerneck -17.1154 -1.73927 -1.03389
upperneck 38.611 -5.69743 4.82439
head 17.1877 -2.25796 1.11674
rclavicle -1.77415e-014 -3.18055e-015
rhumerus -379.956 -6.21073 -384.349
rradius 51.0688
rwrist -10.7895
rhand -32.6697 -10.2202
rfingers 7.12502
rthumb -5.89531 -40.1182
lclavicle -1.77415e-014 -3.18055e-015
lhumerus -33.6242 13.8771 30.5465
lradius 57.2686
lwrist 11.9812
lhand -38.0247 38.6894
lfingers 7.12502
lthumb -11.0631 68.3779
rfemur -15.9905 33.0418 25.8546
rtibia -3.41944
rfoot 0.101005 -14.9677
rtoes -30.8689
lfemur -8.5041 -9.8779 -30.0479
ltibia 8.11508
lfoot -48.8231 -0.218619
ltoes -22.7179
563
root -12.475 16.2598 0.561901 232.869 261.837 -220.698
lowerback 8.0853 2.31113 0.676861
upperback -11.0233 2.99073 -0.0554416
thorax -16.9318 1.16984 -1.07487
lowerneck -17.3308 -1.41212 -0.477253
upperneck 38.5272 -5.37264 4.75356
head 17.1613 -2.05452 1.04349
rclavicle 5.86415e-015 -2.38542e-015
rhumerus -381.675 -8.75967 -383.526
rradius 52.2984
rwrist -13.3164
rhand -34.065 -10.2742
rfingers 7.12502
rthumb -7.24231 -40.1303
lclavicle 5.86415e-015 -2.38542e-015
lhumerus -32.4827 16.1306 31.3129
lradius 59.7744
lwrist 15.6575
lhand -37.8721 38.9836
lfingers 7.12502
lthumb -10.9159 68.6799
rfemur -16.0447 32.5208 25.8881
rtibia -3.08282
rfoot 0.854732 -13.2373
rtoes -32.2054
lfemur -7.86093 -9.39554 -30.3701
ltibia 7.71963
lfoot -49.8471 0.136426
ltoes -22.7993
